<svg width="48" height="48" viewBox="0 0 48 48" fill="none" xmlns="http://www.w3.org/2000/svg">
<path d="M24 0L4.55884 38.0969C9.6384 44.8034 16.7005 48 24 48C31.2243 48 38.3174 44.8616 43.4411 38.0969L24 0ZM39.2547 33.1947C34.1723 41.6194 23.2225 44.3288 14.7978 39.2464C12.3188 37.7509 10.2417 35.6737 8.74618 33.1947L24 3.30263L39.2547 33.1947ZM24 46.4989C17.1076 46.5058 10.593 43.3497 6.32649 37.9366L7.95437 34.7466C13.8946 43.6073 25.893 45.975 34.7537 40.0348C36.844 38.6333 38.6404 36.837 40.0419 34.7466L41.6698 37.9366C37.404 43.3486 30.8911 46.5047 24 46.4989Z" fill="#B79C10"/>
<path d="M28.222 16.1188C28.1702 17.6439 26.8917 18.8383 25.3666 18.7863C23.8415 18.7345 22.6471 17.456 22.699 15.9309C22.751 14.4058 24.0293 13.2114 25.5545 13.2633C26.0714 13.2809 26.5731 13.4433 27.0023 13.7319L24 7.84357L11.1275 33.0679C16.1383 40.177 25.9634 41.8779 33.0724 36.8673C34.5471 35.8278 35.8322 34.5427 36.8717 33.0679L28.222 16.1188ZM18.4701 28.8159C16.943 28.8159 15.7051 27.578 15.7051 26.0509C15.7051 24.5238 16.943 23.286 18.4701 23.286C19.9972 23.286 21.235 24.5238 21.235 26.0509C21.235 27.578 19.9972 28.8159 18.4701 28.8159ZM29.1443 35.4276C27.6173 35.4276 26.3794 34.1898 26.3794 32.6627C26.3794 31.1356 27.6173 29.8977 29.1443 29.8977C30.6703 29.8977 31.9077 31.1339 31.9093 32.6598C31.9109 34.1869 30.6743 35.426 29.1472 35.4276C29.1462 35.4276 29.1453 35.4276 29.1443 35.4276Z" fill="#FFE145"/>
<path d="M29.1443 36.1783C27.2028 36.1783 25.6288 34.6043 25.6288 32.6627C25.6288 30.7212 27.2028 29.1472 29.1443 29.1472C31.0859 29.1472 32.6598 30.7212 32.6598 32.6627C32.6578 34.6035 31.085 36.1762 29.1443 36.1783ZM29.1443 30.6483C28.0318 30.6483 27.1299 31.5502 27.1299 32.6627C27.1299 33.7753 28.0318 34.6772 29.1443 34.6772C30.2568 34.6772 31.1587 33.7753 31.1587 32.6627C31.1608 31.5492 30.2598 30.6448 29.1462 30.6427C29.1455 30.6427 29.145 30.6427 29.1443 30.6427V30.6483Z" fill="#B79C10"/>
<path d="M18.4701 29.5666C16.5285 29.5666 14.9545 27.9926 14.9545 26.0511C14.9545 24.1095 16.5285 22.5355 18.4701 22.5355C20.4116 22.5355 21.9856 24.1095 21.9856 26.0511C21.9835 27.9918 20.4108 29.5645 18.4701 29.5666ZM18.4701 24.0367C17.3575 24.0367 16.4557 24.9385 16.4557 26.0511C16.4557 27.1636 17.3575 28.0655 18.4701 28.0655C19.5826 28.0655 20.4845 27.1636 20.4845 26.0511C20.4829 24.9394 19.5817 24.0386 18.4701 24.0376V24.0367Z" fill="#B79C10"/>
<path d="M25.4599 19.5407C23.5183 19.5422 21.9432 17.9695 21.9416 16.0279C21.94 14.0864 23.5127 12.5112 25.4543 12.5096C27.3959 12.508 28.971 14.0807 28.9726 16.0223C28.9726 16.0232 28.9726 16.0242 28.9726 16.0251C28.9706 17.9647 27.3995 19.537 25.4599 19.5407ZM25.4599 14.0107C24.3474 14.0091 23.4443 14.9097 23.4427 16.0223C23.4411 17.1348 24.3417 18.0379 25.4543 18.0395C26.5669 18.0411 27.4699 17.1406 27.4715 16.0279C27.4715 16.027 27.4715 16.0261 27.4715 16.0251C27.4705 14.9141 26.5708 14.0133 25.4599 14.0107Z" fill="#B79C10"/>
</svg>
